<?xml version="1.0" encoding="UTF-8"?>
<svg width="700px" height="198px" viewBox="0 0 700 198" version="1.1" xmlns="http://www.w3.org/2000/svg" xmlns:xlink="http://www.w3.org/1999/xlink">
    <!-- Generator: Sketch 49.3 (51167) - http://www.bohemiancoding.com/sketch -->
    <title>LOGO</title>
    <desc>Created with Sketch.</desc>
    <defs></defs>
    <g id="Page-1" stroke="none" stroke-width="1" fill="none" fill-rule="evenodd">
        <g id="vogue_lock" fill="#333333" fill-rule="nonzero">
            <g id="LOGO">
                <path d="M654.55787,140.21273 C651.00629,112.897524 644.552684,99.5241004 625.186624,97.0214943 C621.878627,97.0280422 614.064367,97.0358996 611.430803,97.041138 C611.442589,102.135402 611.421636,166.908505 611.447828,189.481724 C621.705763,189.500058 624.393019,189.455532 634.616905,189.49351 C661.444947,187.808081 693.007119,167.152087 699.315362,123.425233 C699.287861,145.452357 699.320601,168.058315 699.314053,191.668721 L561.420588,191.727652 L561.438922,189.471247 L581.908956,189.481724 C581.916814,127.298968 581.878836,69.8581998 581.888003,8.82656469 L567.334648,8.80168268 C567.393579,58.1125828 567.394889,98.5013189 567.350363,149.743849 C566.258174,164.733294 560.003623,173.538905 553.573588,181.664845 C545.125492,191.470975 535.156974,193.997153 530.264386,195.230777 C501.359351,201.679146 468.606772,195.571268 454.004962,174.001186 C450.188848,167.17173 447.849939,163.465621 447.497663,140.479884 L447.515997,8.8383509 L430.458726,8.78596773 L430.435153,6.62123309 C452.360131,6.6906408 471.952747,6.67361627 494.342625,6.65528216 L494.32691,8.81346889 L477.022129,8.83704132 L476.990699,165.344867 C476.54937,173.601765 482.320687,184.024707 497.113695,192.478041 C505.364044,196.112124 518.717825,195.215062 526.699711,193.723451 C532.798422,192.976991 536.610607,191.222155 541.879045,188.661927 C552.368775,183.513971 565.489451,163.74718 565.218368,149.882664 C565.200034,96.5002817 565.159437,8.7689432 565.159437,8.7689432 L543.184695,8.80561142 C543.119216,6.42348662 543.226602,8.70084507 543.20041,6.64349594 L691.473601,6.65790132 L691.474911,68.325992 C689.772458,60.7880534 688.508714,49.052913 682.116657,37.4880179 C671.257625,16.3605746 657.805626,8.11546311 634.123194,8.831803 L611.458304,8.82525511 L611.399373,94.8672363 C613.898051,94.8659267 622.226975,94.920929 625.26258,94.8633075 C645.020203,93.0010857 651.363806,82.5414756 654.502867,57.5127954 L654.55787,140.21273" id="UE"></path>
                <path d="M443.079142,117.443074 C438.63312,117.410335 435.492749,117.427359 432.026292,117.406406 C432.045936,139.074706 432.048555,166.036325 432.038079,190.351284 C427.632654,182.695484 422.554105,178.435422 411.426609,181.638653 C395.795471,189.103255 377.018722,196.819297 366.464822,196.557381 C355.150057,196.850727 343.780289,192.852581 333.378301,187.791057 C296.592217,162.999411 283.116646,116.756855 292.654312,72.0910326 C299.550557,43.6456599 319.909277,11.9970562 349.864595,2.45546124 C379.822531,-8.476907 400.048984,22.9412107 420.426039,0.811939185 C420.445682,16.6342767 420.444373,61.0421117 420.441754,67.4394068 L420.441754,69.6617629 C413.596582,44.8753549 402.169193,12.7513739 374.013238,3.17180114 C356.91406,-0.505497621 341.641746,7.16732767 334.43775,20.2487156 C319.073766,54.0450294 318.12432,142.359131 337.33323,178.884608 C339.754642,184.409723 350.324257,195.06446 366.480537,194.300976 C382.619793,193.584636 402.565996,183.373846 402.571234,168.743225 C402.576472,150.989258 402.573853,136.460785 402.52016,117.440455 C399.568369,117.437836 392.943207,117.432598 391.429333,117.415573 C391.4385,116.375767 391.391355,116.412435 391.421476,115.211551 L443.111881,115.237743 L443.079142,117.443074" id="G"></path>
                <path d="M245.130988,184.083638 C229.12138,195.008148 209.383401,200.751963 188.669785,196.147483 C162.763686,190.690465 139.151971,166.327052 130.513986,141.64541 C119.216245,105.156601 123.522142,59.3998993 148.594038,30.5498666 C168.299278,10.9729652 192.26327,-1.51256413 220.59209,4.61364798 C246.240201,10.1937655 273.027647,36.3919 279.993299,61.6903535 C294.519153,105.770794 282.866516,155.65398 245.130988,184.083638 M231.973644,14.9986121 C223.206011,5.49368529 204.570697,2.30224046 189.83531,8.05391288 C163.370021,21.8372353 161.38339,57.3202873 159.057577,86.9953549 C157.478224,107.137995 156.895461,159.776536 178.550665,187.056383 C187.362824,195.835803 204.553672,197.195146 215.571163,193.938222 C248.359101,181.823304 249.643798,144.590654 251.963063,113.781491 L251.980088,113.125391 C253.71659,78.8314374 249.975122,36.8044175 231.973644,14.9986121" id="O"></path>
                <path d="M159.112579,8.77287193 C158.613629,8.92609272 143.127854,8.76108572 141.037765,8.82656469 C121.968981,69.2610316 101.746456,133.038855 82.7169592,193.022826 C78.7240519,183.403966 75.2693816,174.492279 71.3615969,163.909568 L13.4965246,8.78334857 C6.96434288,8.79906352 5.18200541,8.84227964 0.0471448559,8.77287193 L0,6.76921556 L59.3331107,6.67623543 L59.2964425,8.80823058 L45.2263222,8.81215931 L94.6747281,142.458659 L95.5364313,145.033292 C109.702151,100.7407 124.58552,54.2087268 139.104826,8.82656469 C132.465259,8.77025277 125.362101,8.80430184 119.370775,8.81739763 L119.3878,6.65921089 L159.065434,6.6146852 L159.112579,8.77287193" id="V"></path>
            </g>
        </g>
    </g>
</svg>